<?xml version="1.0" encoding="UTF-8"?>
<svg id="Layer_1" data-name="Layer 1" xmlns="http://www.w3.org/2000/svg" viewBox="0 0 2594.9 1178.18">
  <defs>
    <style>
      .logo-text {
        fill: #003d1f;
      }

      .cls-2 {
        fill: #39c96b;
      }

      .cls-3 {
        fill: #159447;
      }

      .cls-4 {
        fill: #b5f5c8;
      }

      .cls-5 {
        fill: #075b2d;
      }

      .cls-6 {
        fill: #72e39a;
      }
    </style>
  </defs>
  <g id="HERMES">
    <path class="logo-text" d="M2566.7,42.18l-1.8,189.7h-7.4c-18.1-44.8-37.7-90.6-61-133-11.8-21.5-37.6-65.7-59-76.7-26.7-13.8-58.2,15.1-67.1,39.3-25.3,69.1,52.6,133.7,94.2,178.2,66.8,71.6,169.7,158.8,114.7,267.7-39.8,78.9-138.3,93.8-217.4,75.8-33-7.5-62.1-23.1-91-39.9l.5-189.3h10.4s8.9,22.8,10.7,27.1c21.4,51,64.7,156.1,112.4,183.9,18.1,10.6,33.2,11.6,52,1.6,35.6-18.9,40.6-64,30.5-99.5-14.8-51.8-62-90.1-97.5-128-59.7-63.7-148.5-142.2-114.2-240.5,21-60.2,83.5-93.1,143.9-97.9,9.9-.8,24.5-1,34.4,0,0,0,50.4,2.1,112.6,41.4l.1.1h0Z"/>
    <path class="logo-text" d="M1465.2,579.98h16.4l144.9-493.2v427.2c0,52.5-41.8,56.2-41.8,56.2l-.2,9.7h200.8v-9.2s-12.1-3.9-18.3-8c-13.9-9.1-23.4-16-23.4-39.7V68.98c4.7-23.8,18.3-40,41.4-47.5v-9.5h-161.4l-101.3,330.7L1424.8,11.98h-161.5v9.6s6.9,1.6,12.2,4c30.8,14.1,35.4,38.8,37.5,67.6v363.3c0,72.1-15.19,93.63-48.7,109.7-4.49,2.15-9,3.7-9,3.7l.2,9.8h139.6v-9.8s-5.9-1.3-10.2-3.9c-43.3-26.3-51.1-63.8-51.1-109V94.28c.1,0,131.2,485.6,131.2,485.6l.2.1Z"/>
    <path class="logo-text" d="M158.5,517.78v-239.9h126.2v241.8c0,50.4-40.2,50.4-40.2,50.4v9.8h196.7v-9.8s-41.9,0-41.9-58V81.88c0-60.1,41.9-60.1,41.9-60.1v-9.6h-196.7v9.6s40.2-.5,40.2,52.5v182.5h-126.2V76.18c0-57.6,42.1-54.4,42.1-54.4v-9.6H0v9.6s39.9-3.5,39.9,52.5v439.7c0,28.6-5.6,56.1-39.9,56.1v9.8h200.6v-9.8s-42.1-.9-42.1-52.3h0Z"/>
    <path class="logo-text" d="M1068.2,570.18v9.8h-200.9v-9.8c20.2-6.9,40-12.6,40-45.2s.8-295.4,2.4-443c-2.2-27.8-14-51.9-42.5-60.1v-9.6h56c114.6-.5,287.5-16.3,314.7,108.5,20,91.7-52,150.2-134.3,164.8-1.2.2-2.7.5-2.7.5l-6.4,1.1,119,26.1v297.2h-13.2c-11.5-32.5-26.2-63.8-39.3-95.6-20.5-49.6-39-102-61.8-150.4-13.9-29.5-33.8-69.4-73-69.4v226.5c0,34.6,41.9,48.5,41.9,48.5l.1.1h0ZM1026.3,279.88c28.8,0,55.6-19.5,70.4-43.4,32.5-52.4,32.7-179.5-35.4-204.7-11.7-4.3-22.5-4.9-34.9-4.2v252.3h-.1Z"/>
    <path class="logo-text" d="M1068.2,570.18v9.8h-200.9v-9.8c20.2-6.9,40-12.6,40-45.2s.8-295.4,2.4-443c-2.2-27.8-14-51.9-42.5-60.1v-9.6h56c114.6-.5,287.5-16.3,314.7,108.5,20,91.7-52,150.2-134.3,164.8-1.2.2-2.7.5-2.7.5l-6.4,1.1,119,26.1v297.2h-13.2c-11.5-32.5-26.2-63.8-39.3-95.6-20.5-49.6-39-102-61.8-150.4-13.9-29.5-33.8-69.4-73-69.4v226.5c0,34.6,41.9,48.5,41.9,48.5l.1.1h0ZM1026.3,279.88c28.8,0,55.6-19.5,70.4-43.4,32.5-52.4,32.7-179.5-35.4-204.7-11.7-4.3-22.5-4.9-34.9-4.2v252.3h-.1Z"/>
    <path class="logo-text" d="M1874.8,72.58l.2,445.2c0,43.7-41.2,52.3-41.2,52.3v9.7h364.2v-225.9h-10.9c-25.2,65.3-58.1,151.1-118.5,191.2-7.7,5.1-33.4,17.5-41.7,17.5h-33.4v-278.4c22,0,32.9,3.7,32.9,3.7,46.9,13.5,63,77.1,77.8,117.8h10.1v-6.3l-1.4-244h-8.7c-16.1,51.7-47.2,111-110.9,111V27.48h37.3c38.8,0,87.1,36.9,108.8,67,22.5,31.2,35.1,72.4,47.2,108.6h7.4l-.2-190.9h-360.3v9.6s41.1,0,41.1,50.8h.2,0Z"/>
    <path class="logo-text" d="M513.4,72.68l.2,445.2c0,46.1-40.3,52.3-40.3,52.3v9.8h363.3v-225.9h-10.9c-25.2,65.3-58.1,151.1-118.5,191.2-7.7,5.1-33.4,17.5-41.7,17.5h-33.4v-278.4c22,0,32.9,3.7,32.9,3.7,46.9,13.5,63,77.1,77.8,117.8h10.1v-6.3l-1.4-244h-8.7c-16.1,51.7-47.2,111-110.9,111V27.68h37.3c38.8,0,87.1,36.9,108.8,67,22.5,31.2,35.1,72.4,47.2,108.6h7.4l-.2-190.9h-359.3v9.6s40.1,0,40.1,50.8l.2-.1h0Z"/>
  </g>
  <g>
    <path class="logo-text" d="M509.8,1029.08c29.6-98.4,54.5-203.7,87.9-300.1,11.4-32.9,23-59.5,53.4-78.6,3.5-2.2,10.2-5.9,13.8-7.5v-7.7h-137.2v7.7s9.5,3.5,17.4,10.7c39.9,36.4,22.3,94.5,11,137l-61.7,215.2s-3.1-9.1-3.7-11.1c-25.9-85.3-52.8-177.5-74.5-263.8-4.6-18.1-9.1-31.3-4.3-50.2,4.2-16.7,18.7-34.1,35.9-37.8v-7.7h-209.6v7.7c29.1,1.7,45.5,44.6,45.5,44.6,17.9,39.1,26.7,87.3,39.9,128.5-17.6,64.6-36.8,128.9-58.4,192.1l-88-292.4c-7.5-27.8,3.9-65.7,33.6-72.8v-7.7H.2v7.7s9.4,2.7,13.2,4.9c45.5,26.8,56.9,95.8,72.6,143.7l122.1,386.6h28.2l98.7-319.2,98.5,319.2h31.3l45.1-149.1-.1.1h0Z"/>
    <path class="logo-text" d="M611.6,692.88l.2,425.9c0,41.8-40.8,51.7-40.8,51.7v7.7h360.1v-216.1h-10.7c-24.9,62.5-55.31,148.06-117.1,182.9-27.76,15.65-31.59,16.7-41.3,16.7h-33.1v-266.3c21.7,0,32.6,3.5,32.6,3.5,46.4,12.9,62.2,73.7,76.9,112.7h10v-6.1l-1.3-233.4h-8.6c-15.9,49.5-46.7,106.1-109.6,106.1v-228.5h36.8c38.3,0,86.1,35.3,107.6,64.1,22.3,29.9,34.7,69.3,46.6,103.9h7.3l-.2-182.6h-356.1v7.7s40.6,1.5,40.6,50l.1.1h0Z"/>
    <path class="logo-text" d="M961.9,635.18h205.6c67.5,0,147.8,27.5,160.5,103.3,13.5,80.4-42.5,136.3-117.1,148.7-3.4.6-10,1.4-10,1.4,0,0,48.4,10.4,65.5,16.7,69.8,25.9,99,91.7,86.9,164.4-11.4,68.6-76.1,108.5-149.5,108.5h-241.8v-7.7c20.7-8.4,37.8-21.7,37.8-45.4v-436.8c0-50.8-37.8-45.4-37.8-45.4v-7.7h-.1ZM1114.8,648.68v234.3s2.2.2,3.9,0c0,0,17.6-.3,25.3-1.5,74.6-12.3,79.2-154.3,45.3-205-8.7-13.1-19.1-27.7-46.8-27.7h-27.7v-.1h0ZM1114.8,1162.88h39.9c8.6,0,14.4-1.4,21.1-4.1s5.2-2.1,6-2.5c63.5-32.2,68.2-155.7,36.6-210.7-21.3-37.1-56.8-48.1-103.6-46.5v263.8Z"/>
  </g>
  <rect class="cls-2" x="1923.5" y="635.18" width="150.1" height="543"/>
  <rect class="cls-3" x="1659.8" y="635.18" width="150.1" height="543"/>
  <rect class="cls-4" x="2416.3" y="635.18" width="150.1" height="543"/>
  <rect class="cls-6" x="2178.5" y="635.18" width="150.1" height="543"/>
  <path class="cls-5" d="M1396.1,635.18h150.1v543h-150.1v-16.69s74.63-27.12,74.63-120.06c0-100.09-74.63-129.71-74.63-129.71v-53.53s48.71-29.69,48.71-97.09-48.71-94.7-48.71-94.7v-31.22Z"/>
</svg>